<svg version="1.0" xmlns="http://www.w3.org/2000/svg" width="933.333" height="933.333" viewBox="0 0 700 700"><path d="M165.3 12.4c-10 3.2-18.2 11.3-21.2 21-1.8 5.7-1.9 10.7-2 85.1 0 43.4-.1 81.3-.1 84.1v5.2h-40.2c-26 0-42.6.4-46.7 1.2-20.8 3.8-37.6 20-42.6 41.5-2.3 9.3-2.2 278.4 0 287 5.3 20.8 21 36.2 42.1 41.1 1.6.4 28.1.8 58.8.9 38.4.1 56.1.5 56.3 1.2.4 1-12.2 39.7-13.5 41.8-.4.6-8.7 1-21.2 1-25.3.1-28.4.9-37.6 10-8.7 8.7-9.8 12.6-9.8 36.5l-.1 18.5 164 .3 164.1.2-.1-19.2c-.1-12.9-.5-20.6-1.4-23.3-3.1-9.5-11.4-18-20.7-21.2-4-1.4-8.8-1.7-25.6-1.8H347l-7.1-21.3c-3.9-11.7-6.8-21.6-6.5-21.9.3-.4 25.9-.7 56.9-.9 33.5-.1 57.6-.6 59.7-1.2 6.5-1.8 14.5-5.3 18-7.9 16.4-12.1 24-27.3 24.2-48V514l86.2-.2 86.1-.3 5.3-2.4c6.6-3 14.4-11.3 17.1-18.4 2-5.2 2-6.8 1.8-231.2l-.2-226-2.7-5.5c-3.5-7.2-8.6-12.3-15.6-15.7l-5.7-2.8-247.5-.2c-201.7-.1-248.3.1-251.7 1.1zm498.3 24l3.4 3.4-.2 29.3-.3 29.3h-251l-251 .1V38.8l3.3-2.9L171 33h489.2l3.4 3.4zm3.4 266.4v182.4l-3.4 3.4-3.4 3.4H492.1l.2-10.8.2-10.7h76.2c67.1 0 76.3-.2 76.4-1.5.1-1.9.1-193.2 0-194.6-.1-.7-23.1-1-76.3-1h-76.3l-.1-6.1c-.4-19-5.1-31.9-15.9-42.9-8.5-8.7-20.7-14.8-32.1-16-3-.4-67.2-.7-142.7-.8l-137.2-.1-.3-43.6-.2-43.6h503v182.5zM449.3 232c10.3 3.9 18.9 14.6 20.5 25.5.5 3.7.8 202.2.3 211.5-.1 1.3-25 1.5-218.4 1.4l-218.2-.1V253.5l2.3-4.8c4.8-9.9 14.8-17.2 25.7-18.6 2.8-.3 89.8-.5 193.5-.5l188.5.2 5.8 2.2zm173.8 64.8c.5 8.2.3 149.9-.2 150.7-.5.7-23.4 1-65.6.9h-64.8l-.2-75.5c-.1-41.5 0-75.9.2-76.5.3-.9 17.7-1.2 65.4-1.2 60.1 0 65.1.1 65.2 1.6zm-153 197c.4 6.4 0 35-.6 38-2 10.5-11.4 20.8-21.9 24.1-6 1.9-11.8 1.9-196.2 1.9-183.5 0-190.1-.1-196-1.9-7.9-2.4-15.3-8.9-19.1-16.7-2.8-5.6-2.8-6.1-3.1-26.4l-.3-20.6h218.5c203.5 0 218.6.1 218.7 1.6zm-160.8 86.3c.2.2 3.4 9.6 7.2 20.9 3.7 11.3 6.9 20.9 7.1 21.5.3.7-23.4 1-69.8.9-38.7-.1-71.2-.2-72.4-.3-1.9-.1-1.6-1.4 5-21.5 5.9-17.8 7.4-21.5 9.1-21.8 3-.5 113.4-.2 113.8.3zm80.8 68.5c2.8 2.9 3.1 3.8 3.5 10.8l.4 7.6H109.2l.3-7.6c.2-6.3.6-7.9 2.6-10.1 1.3-1.4 3.3-2.9 4.4-3.3 1.1-.4 62.4-.7 136.2-.6l134.3.1 3.1 3.1z"/><path d="M187 54.8c-.6.2-1 4.9-1 11.1v10.7l10.8-.1h10.7l.2-10.8c.1-10.4.1-10.7-2-10.8-10.2-.3-17.9-.3-18.7-.1zm44.7 0c-.9.2-1.7.7-1.8 1-.1 1-.1 12.9 0 17.3l.1 3.7 10.7-.2 10.7-.1.1-10.8.1-10.7-3.1-.1c-12.5-.3-15.4-.4-16.8-.1zm43.2 0c-1.3.2-1.5 2.1-1.3 10.5.1 5.6.2 10.5.3 10.8.2 1.1 21.1.6 21.2-.5.1-1.5.1-15.5 0-18.6-.1-2.5-.2-2.5-9.4-2.5-5.1 0-10 .1-10.8.3zm-88.3 87.9c-.3.4-.6 5.3-.6 11V164h22l-.3-10.8-.2-10.7-10.2-.2c-5.6-.1-10.4.1-10.7.4zm43.3 3.2c0 2-.1 6.7-.1 10.6l-.1 7 207.9.3 207.9.2-.2-9.7c-.1-5.4-.2-10.3-.2-11-.1-.9-47.1-1.2-207.6-1.1H230l-.1 3.7zm284.3 50.8l.3 10.8 65.3.2 65.2.1.1-2.6c0-1.5.2-6.4.2-11l.2-8.2H513.9l.3 10.7zm1.4 33.1c-1.5.3-1.6 1.6-1.4 11l.3 10.7h65.3c64.6 0 65.2 0 65.3-2 .1-2.8.1-13.4 0-17l-.1-3h-63.8c-35.1 0-64.6.1-65.6.3zM82.4 252c-10.7 1.5-21.4 10.2-25.5 20.9-2.1 5.5-2.1 6.3-2.1 77.1 0 70.5 0 71.6 2.1 77.1 3.7 9.6 12 17.3 21.8 20.1 4.5 1.3 226.1 1.9 233.2.6 10.1-1.8 18.7-8.3 23.8-17.9l2.8-5.4v-149l-2.3-4.7c-3.4-7-11-14.2-17.9-16.9l-5.8-2.2-113-.1c-62.1-.1-114.8.1-117.1.4zm229.3 22.8c5.4 3 5.3 1.6 5.3 75.1 0 49.3-.3 68.7-1.2 70.5-.6 1.4-2.3 3.4-3.7 4.3-2.4 1.6-9.8 1.8-113.9 1.8-73.6 0-112.4-.3-114.4-1-1.7-.5-4-2.2-5.2-3.8-2-2.7-2-3.7-2-71.7 0-67.9 0-69 2-71.7 1.2-1.6 3.5-3.3 5.1-3.8 4.9-1.6 225.1-1.3 228 .3z"/><path d="M186.5 346.1c-11.9 35.8-21.3 65.4-21 65.8.4.3 4.9 2 10.1 3.7 8.4 2.8 9.6 2.9 10.3 1.5 1.3-2.4 43.3-129.3 42.9-129.6-.5-.4-19.2-6.5-19.9-6.5-.4 0-10.4 29.3-22.4 65.1zm-67.3-21.6L93.8 350l25.7 25.6 25.6 25.6 2.6-2.3c1.5-1.3 5-4.8 7.8-7.7l5.2-5.3-18-18-18-18 18.1-18 18-18.1-7.5-7.4c-4.2-4.1-7.9-7.4-8.2-7.4-.3.1-12 11.5-25.9 25.5zm120.9-18l-7.3 7.5 18 18 18 18-18 18-18.1 18 7.7 7.6c5.7 5.5 8.1 7.3 9 6.5 3.6-3 49.6-49.4 49.6-50.1 0-1-49.8-51-50.8-51-.4 0-4 3.4-8.1 7.5zm121.2-53.9c-.2.6-.2 5.5-.1 11l.3 9.9 42 .1c23.1 0 42.7-.3 43.5-.7 1.3-.6 1.6-2.7 1.5-11.1l-.1-10.3h-43.3c-30.1 0-43.5.3-43.8 1.1zm.2 43.2c-.3.3-.5 5.2-.5 10.9V317l43.7-.2 43.8-.3v-10.3c0-8.3-.3-10.3-1.5-10.6-2.2-.6-84.9-.4-85.5.2zM361 350v11l43.8-.2 43.7-.3v-21l-43.8-.3-43.7-.2v11zm42.3 32.8l-42.3.2v21.7l43.8-.1 43.7-.1.1-9.5c0-10.4-.2-11.7-1.9-12.2-.7-.2-20.2-.2-43.4 0zm-19.3 44c-1.3.2-1.4 2-1 11l.5 10.7h21l.2-10.8c.1-5.9-.2-10.8-.5-10.8-1.6-.3-18.8-.4-20.2-.1zm43.1.2c-.9.6-.8 19.1.1 20.5.5.8 17.8 1.3 20.8.6.3 0 .5-4.9.5-10.8v-10.8h-10.4c-5.6 0-10.6.2-11 .5zM197 525v11h21.7l.1-11 .1-11H197v11zm43.8-9.8c-.2.7-.3 5.6-.3 10.8l.1 9.5h21.9v-21l-10.6-.3c-8-.2-10.8.1-11.1 1zm43.6 9.8v11h10.8c5.9 0 10.8-.3 10.9-.8 0-.4.1-5.2.2-10.7l.1-10-11-.3-11-.3V525z"/></svg>